# xmcd
#
# Track frame offsets:
# 150
# 2145
# 19150
# 32595
# 48117
# 63780
# 78895
# 95595
# 100082
# 115382
# 131970
# 144337
# 159900
# 180767
#
# Disc length: 2624 seconds
#
#
# Revision: 0
# Processed by: cddbd v1.5.1PL2 Copyright (c) Steve Scherf et al.
# Submitted via: FreeRIP 2.942 
#
DISCID=a10a3e0e
DTITLE=UTR - first Attack
DYEAR=2004
DGENRE=Hip-Hop
TTITLE0=Intro (Dogg-G)
TTITLE1=Be UnTouchable (VisLo) (Feat.SPIT-OUT, Fav_sek from 'FLUM LUNIC')
TTITLE2=How To Be a MC (ªÁ¿⁄ø’, VisLo) (Feat.FLUM LUNIC)
TTITLE3=º“πÆø° ¿««œ∏È (ªÁ¿⁄ø’, VisLo) (Feat.CUSPID, ASPERITY)
TTITLE4=Could It Be (ªÁ¿⁄ø’) (Feat.FLUM LUNIC, R)
TTITLE5=Catch Me If You Can (ªÁ¿⁄ø’) (Feat.RARE, OneSoul from 'SPIT-OUT')
TTITLE6=¡¶πﬂ(Wait for you) (VisLo) (Feat.øµπŒ)
TTITLE7=Walk on(skit) (ªÁ¿⁄ø’) (Feat.DJ shinin'stone from 'Soul re-Search')
TTITLE8=Focus (ªÁ¿⁄ø’) (Feat.≈√±Ÿ , BLASTA from 'SPIT-OUT', DJ shinin'stone from 'Soul re-Search')
TTITLE9=¡¢»˘¿œ±‚ (VisLo) (Feat.SPIT-OUT )
TTITLE10=The Approach (ªÁ¿⁄ø’) (Feat.FLUM LUNIC)
TTITLE11=Let's Move (VisLo) (Feat.RARE , BLASTA from 'SPIT-OUT')
TTITLE12=Reminiscence (ªÁ¿⁄ø’) (Feat.Fav_sek from 'FLUM LUNIC', Hosh)
TTITLE13=Happy Birth Day 2 Ma Friend (VisLo) (Feat.OneSoul from 'SPIT-OUT')
EXTD=
EXTT0=
EXTT1=
EXTT2=
EXTT3=
EXTT4=
EXTT5=
EXTT6=
EXTT7=
EXTT8=
EXTT9=
EXTT10=
EXTT11=
EXTT12=
EXTT13=
PLAYORDER=
